<?xml version="1.0" encoding="UTF-8" standalone="no"?>
<svg
   xmlns:dc="http://purl.org/dc/elements/1.1/"
   xmlns:cc="http://creativecommons.org/ns#"
   xmlns:rdf="http://www.w3.org/1999/02/22-rdf-syntax-ns#"
   xmlns:svg="http://www.w3.org/2000/svg"
   xmlns="http://www.w3.org/2000/svg"
   xmlns:sodipodi="http://sodipodi.sourceforge.net/DTD/sodipodi-0.dtd"
   xmlns:inkscape="http://www.inkscape.org/namespaces/inkscape"
   height="512pt"
   viewBox="-46 0 512 512.00032"
   width="512pt"
   version="1.1"
   id="svg893"
   sodipodi:docname="topf.svg"
   inkscape:version="0.92.2 5c3e80d, 2017-08-06">
  <metadata
     id="metadata899">
    <rdf:RDF>
      <cc:Work
         rdf:about="">
        <dc:format>image/svg+xml</dc:format>
        <dc:type
           rdf:resource="http://purl.org/dc/dcmitype/StillImage" />
        <dc:title></dc:title>
      </cc:Work>
    </rdf:RDF>
  </metadata>
  <defs
     id="defs897" />
  <sodipodi:namedview
     pagecolor="#ffffff"
     bordercolor="#666666"
     borderopacity="1"
     objecttolerance="10"
     gridtolerance="10"
     guidetolerance="10"
     inkscape:pageopacity="0"
     inkscape:pageshadow="2"
     inkscape:window-width="1615"
     inkscape:window-height="858"
     id="namedview895"
     showgrid="false"
     inkscape:zoom="0.31540139"
     inkscape:cx="209.07098"
     inkscape:cy="544.23336"
     inkscape:window-x="202"
     inkscape:window-y="289"
     inkscape:window-maximized="0"
     inkscape:current-layer="svg893" />
  <path
     d="m379.996094 90c0 5.519531 4.480468 10 10 10 5.523437 0 10-4.480469 10-10s-4.476563-10-10-10c-5.519532 0-10 4.480469-10 10zm0 0"
     id="path877" />
  <path
     d="m300 30c0 5.519531 4.476562 10 10 10 5.519531 0 10-4.480469 10-10s-4.480469-10-10-10c-5.523438 0-10 4.480469-10 10zm0 0"
     id="path879" />
  <path
     d="m240 30c0 5.519531 4.480469 10 10 10s10-4.480469 10-10-4.480469-10-10-10-10 4.480469-10 10zm0 0"
     id="path881" />
  <path
     d="m90 385.996094c5.519531 0 10-4.476563 10-10 0-5.519532-4.480469-10-10-10s-10 4.480468-10 10c0 5.523437 4.480469 10 10 10zm0 0"
     id="path883" />
  <path
     d="m69.398438 353.992188c4.726562-2.859376 6.234374-9.007813 3.375-13.734376-8.476563-14-12.773438-28.890624-12.773438-44.257812 0-18.640625 6.816406-37.265625 19.714844-53.867188 3.390625-4.359374 2.601562-10.640624-1.757813-14.03125-4.363281-3.390624-10.644531-2.601562-14.035156 1.761719-15.648437 20.140625-23.921875 43.007813-23.921875 66.136719 0 19.070312 5.269531 37.449219 15.664062 54.617188 2.863282 4.726562 9.011719 6.234374 13.734376 3.375zm0 0"
     id="path885" />
  <path
     d="m33.574219 508.824219c14.328125 7.195312 32.597656 1.914062 40.269531-13.40625l27.042969-54.101563c32.8125 16.171875 70.304687 24.679688 109.113281 24.679688s76.296875-8.507813 109.109375-24.679688l27.046875 54.109375c7.628906 15.230469 25.867188 20.628907 40.253906 13.40625 14.789063-7.394531 20.808594-25.453125 13.410156-40.253906l-30.746093-61.519531c32.898437-30.847656 50.921875-70.007813 50.921875-111.058594 0-41.171875-18.394532-80.617188-51.214844-111.3125 12.269531-3.765625 21.214844-15.199219 21.214844-28.6875 0-16.542969-13.457032-30-29.996094-30h-21.015625c.667969-3.277344 1.015625-6.628906 1.015625-10 0-27.570312-22.433594-50-50-50-17.359375 0-33.210938 9.011719-42.242188 23.25-5.632812-2.136719-11.632812-3.25-17.757812-3.25-24.148438 0-44.347656 17.207031-48.996094 40h-16.480468l-60.132813-110.964844c-.035156-.066406-.070313-.128906-.105469-.195312-5.230468-9.152344-15.023437-14.839844-25.566406-14.839844-20.761719 0-35.015625 20.953125-27.375 40.265625l32.214844 85.734375h-23.558594c-16.542969 0-30 13.457031-30 30 0 13.484375 8.949219 24.921875 21.21875 28.683594-32.824219 30.699218-51.21875 70.144531-51.21875 111.316406 0 41.050781 18.027344 80.207031 50.925781 111.058594l-30.75 61.519531c-7.394531 14.800781-1.378906 32.859375 13.398438 40.246094zm343.878906-17.875c-4.773437 2.394531-10.867187.605469-13.410156-4.472657l-27.398438-54.816406c5.792969-3.550781 11.363281-7.347656 16.6875-11.367187l28.601563 57.222656c2.464844 4.941406.460937 10.960937-4.480469 13.433594zm-7.457031-334.949219c0 5.511719-4.484375 10-9.996094 10h-40v-20h40c5.511719 0 9.996094 4.484375 9.996094 10zm-119.996094 50c-16.542969 0-30 13.457031-30 30 0 5.511719-4.488281 10-10 10-5.515625 0-10-4.488281-10-10v-90.011719h100.007812c-.007812.855469 0 8.148438 0 110.011719 0 5.511719-4.496093 10-10.007812 10-5.515625 0-10-4.488281-10-10v-20c0-16.542969-13.460938-30-30-30zm40-120c16.539062 0 30 13.457031 30 30 0 3.421875-.59375 6.804688-1.722656 10h-56.558594c-1.128906-3.195312-1.71875-6.578125-1.71875-10 0-3.414062.566406-6.757812 1.683594-9.9375 4.214844-12 15.59375-20.0625 28.316406-20.0625zm-60 20c3.675781 0 7.273438.667969 10.652344 1.949219-.429688 2.648437-.652344 5.335937-.652344 8.050781 0 3.371094.347656 6.722656 1.015625 10h-39.296875c4.128906-11.640625 15.242188-20 28.28125-20zm-159.96875-72.855469c-.027344-.066406-.050781-.132812-.078125-.199219-2.480469-6.207031 2.066406-12.945312 8.765625-12.945312 3.351562 0 6.464844 1.789062 8.152344 4.679688l54.902344 101.320312h-36.851563zm-10.03125 112.855469h120v20h-120c-5.515625 0-10-4.488281-10-10 0-5.515625 4.484375-10 10-10zm-40 150c0-41.683594 22.179688-81.613281 60.953125-110h99.046875v50c0 16.539062 13.457031 30 30 30 16.539062 0 30-13.460938 30-30 0-5.515625 4.484375-10 10-10 5.511719 0 10 4.484375 10 10v20c0 16.539062 13.457031 30 30 30 16.539062 0 30-13.460938 30-30v-70h19.046875c38.773437 28.386719 60.949219 68.316406 60.949219 110 0 37.503906-17.6875 73.429688-49.800782 101.15625-9.464843 8.164062-20.070312 15.511719-31.523437 21.839844-31.96875 17.664062-69.550781 27-108.671875 27-56.015625 0-105.710938-19.089844-140.195312-48.835938-32.117188-27.730468-49.804688-63.65625-49.804688-101.160156zm18.066406 181.519531 28.601563-57.226562c5.320312 4.015625 10.890625 7.816406 16.6875 11.363281l-27.398438 54.8125c-2.515625 5.027344-8.574219 6.90625-13.425781 4.472656-4.929688-2.464844-6.933594-8.484375-4.464844-13.421875zm0 0"
     id="path887" />
  <path
     d="m160 30c0 16.542969 13.457031 30 30 30 16.539062 0 30-13.457031 30-30s-13.460938-30-30-30c-16.542969 0-30 13.457031-30 30zm40 0c0 5.515625-4.488281 10-10 10-5.515625 0-10-4.484375-10-10s4.484375-10 10-10c5.511719 0 10 4.484375 10 10zm0 0"
     id="path889" />
  <path
     d="m369.996094 0c-16.539063 0-29.996094 13.457031-29.996094 30s13.457031 30 29.996094 30c16.542968 0 30-13.457031 30-30s-13.457032-30-30-30zm0 40c-5.511719 0-9.996094-4.484375-9.996094-10s4.484375-10 9.996094-10c5.515625 0 10 4.484375 10 10s-4.484375 10-10 10zm0 0"
     id="path891" />
  <path
     style="fill:#999999;fill-opacity:0.83333333;stroke:none;stroke-width:22.41926575;stroke-linecap:round;stroke-miterlimit:4;stroke-dasharray:none;stroke-opacity:1"
     d="m 150.62945,560.53615 c -4.25314,6.32358 -7.27581,13.60476 -10.95389,20.33861 -9.48462,19.04698 -19.44109,37.88289 -28.22509,57.26511 -3.7311,8.22929 3.5222,18.59489 12.52764,18.1051 5.32567,0.0885 10.52335,-3.17674 12.18932,-8.34959 12.34978,-23.91902 24.74874,-47.83298 36.3832,-72.10362 -1.81357,-2.52322 -5.43752,-3.62378 -7.88396,-5.65517 -4.7821,-3.01915 -9.20752,-6.77995 -14.03722,-9.60044 z"
     id="path925"
     inkscape:connector-curvature="0"
     transform="matrix(0.75000021,0,0,0.75000021,-46,0)" />
  <path
     style="fill:#999999;fill-opacity:0.83333333;stroke:none;stroke-width:22.41926575;stroke-linecap:round;stroke-miterlimit:4;stroke-dasharray:none;stroke-opacity:1"
     d="m 169.07608,247.60238 c -34.67617,25.72674 -63.35065,61.32185 -75.174863,103.3366 -11.499351,39.3069 -6.593983,82.74861 12.342903,118.95021 22.71222,43.94084 62.66681,77.07414 107.07936,97.66065 36.56989,16.90689 76.6951,25.94309 116.92689,27.1381 24.16871,0.70321 48.42621,-0.85685 72.15264,-5.64122 47.18099,-9.10588 92.65754,-29.67174 128.75298,-61.66328 13.57149,-12.36216 26.05552,-26.01029 35.90861,-41.55481 25.25884,-37.68642 34.4605,-86.10539 22.97572,-130.17942 -9.23363,-37.15095 -31.9207,-69.82022 -60.35114,-94.97952 -5.24465,-4.65055 -10.71807,-9.11259 -16.40401,-13.1713 -8.35541,0 -16.71082,0 -25.06623,0 -1.19385,3.47992 -0.17819,7.88066 -0.53663,11.70875 -0.0965,29.77232 -0.19315,59.54464 -0.28987,89.31697 -3.09938,11.76021 -10.45741,22.75592 -21.68838,28.04177 -10.50708,5.73237 -23.74337,5.49753 -34.60499,0.55922 -11.2408,-5.37318 -20.02188,-16.28 -21.98029,-28.67981 -0.97003,-12.49987 0.0386,-25.1497 -1.41106,-37.60919 -2.17895,-8.08381 -12.42108,-12.32462 -19.63657,-8.02518 -6.27923,3.06217 -7.10668,10.70166 -7.49315,16.87356 -1.95974,16.44253 -15.17488,30.88186 -31.53367,33.70772 -15.73095,3.36694 -33.11051,-4.08779 -41.41619,-18.03526 -4.16058,-6.44341 -6.1527,-14.05288 -5.75894,-21.68754 -0.305,-21.88976 -0.29417,-43.78285 -0.45705,-65.67403 -3.48557,-1.17887 -7.88057,-0.15193 -11.70991,-0.49698 -40.20284,0.0695 -80.45204,-0.13871 -120.62616,0.10399 z m -12.02518,54.2069 c 7.21656,-0.17892 13.84759,6.6955 12.55975,14.01203 0.13712,5.30193 -4.61405,9.05606 -6.9338,13.40972 -14.8242,21.11538 -23.34717,47.08794 -21.3479,73.01065 1.06398,18.93385 8.30893,36.84855 17.36837,53.28188 3.68531,7.35004 -1.90272,17.15962 -10.07882,17.72414 -5.45984,0.85118 -11.18804,-2.28377 -13.48919,-7.41547 -18.50273,-30.72839 -25.21539,-68.77355 -15.96711,-103.60678 5.3159,-20.21699 15.0286,-39.34994 28.13391,-55.62909 2.44557,-2.92425 5.82976,-4.97606 9.75479,-4.78708 z m 24.21894,186.62069 c 8.42883,-0.10256 15.37172,8.96463 12.26163,16.99835 -2.49932,7.96023 -13.42802,11.59897 -19.89928,6.25726 -7.50998,-5.23238 -6.48112,-18.12244 1.91351,-21.9376 1.77342,-0.88725 3.71613,-1.34109 5.72414,-1.31801 z"
     id="path927"
     inkscape:connector-curvature="0"
     transform="matrix(0.75000021,0,0,0.75000021,-46,0)" />
  <path
     style="fill:#999999;fill-opacity:0.83333333;stroke:none;stroke-width:22.41926575;stroke-linecap:round;stroke-miterlimit:4;stroke-dasharray:none;stroke-opacity:1"
     d="m 531.62562,560.6084 c -6.98592,5.16663 -14.34289,9.86421 -21.45813,14.79803 2.17865,6.29084 5.91178,12.20928 8.70498,18.33169 9.90078,19.48885 19.53667,39.13402 29.95621,58.34702 4.24849,4.67977 11.64454,5.63209 16.93268,2.14888 6.19132,-3.55482 8.25586,-12.21457 4.54077,-18.27039 -11.93715,-24.88966 -24.27903,-49.60275 -37.19287,-74.0008 -0.39639,-0.45198 -0.62423,-1.72891 -1.48364,-1.35443 z"
     id="path929"
     inkscape:connector-curvature="0"
     transform="matrix(0.75000021,0,0,0.75000021,-46,0)" />
  <path
     style="fill:#999999;fill-opacity:0.83333333;stroke:none;stroke-width:22.41926575;stroke-linecap:round;stroke-miterlimit:4;stroke-dasharray:none;stroke-opacity:1"
     d="m 220.40941,194.25591 c -27.57699,0.16252 -55.18205,-0.27856 -82.7411,0.58785 -7.08831,1.84478 -11.38112,9.76386 -9.44499,16.75862 1.15768,4.32199 4.84258,8.17651 9.15161,9.3607 40.93189,0.91196 81.88731,0.42033 122.82867,0.60412 13.59169,0.01 27.18337,0.0191 40.77505,0.0286 1.18627,-3.481 0.15323,-7.88128 0.50028,-11.7099 -0.26708,-5.12054 0.53679,-10.68467 -0.39632,-15.52933 -26.80285,-0.24138 -53.80133,-0.0325 -80.6732,-0.10067 z"
     id="path931"
     inkscape:connector-curvature="0"
     transform="matrix(0.75000021,0,0,0.75000021,-46,0)" />
  <path
     style="fill:#999999;fill-opacity:0.83529413;stroke:none;stroke-width:22.41926575;stroke-linecap:round;stroke-miterlimit:4;stroke-dasharray:none;stroke-opacity:1"
     d="m 487.67926,194.7529 c 0,8.78088 0,17.56176 0,26.34264 3.481,1.18627 7.88128,0.15323 11.7099,0.50027 15.33383,-0.22497 30.72608,0.50462 46.02408,-0.63163 6.40834,-2.02648 10.79591,-9.0148 9.16804,-15.68145 -1.03414,-6.56503 -7.67309,-11.5594 -14.28543,-10.76115 -17.36833,-0.4359 -34.74447,-0.20559 -52.11632,-0.26895 l -0.39632,0.39632 z"
     id="path933"
     inkscape:connector-curvature="0"
     transform="matrix(0.75000021,0,0,0.75000021,-46,0)" />
  <path
     style="fill:#c41e3a;fill-opacity:1;stroke:none;stroke-width:22.41926575;stroke-linecap:round;stroke-miterlimit:4;stroke-dasharray:none;stroke-opacity:1"
     d="m 327.34866,194.754 c 0.14725,41.08714 0.12389,82.19669 0.37767,123.26984 2.22854,5.34157 6.95225,10.2334 13.12972,10.05692 7.08694,0.65391 13.60656,-5.46141 13.95731,-12.48604 0.60598,-8.9427 2.77676,-18.06532 8.57799,-25.11111 10.0685,-13.67062 29.6333,-18.97692 45.31144,-12.73892 11.81612,4.40904 20.95024,14.7185 24.30433,26.82649 2.00789,9.2872 0.94518,18.92508 1.54614,28.36812 0.40517,4.78453 -0.20634,9.8199 1.11505,14.45728 3.0099,5.79769 10.15514,9.00628 16.44335,6.88561 4.51948,-1.49563 8.96569,-5.41612 8.91611,-10.53513 1.30667,-21.83873 0.50746,-43.75103 0.7493,-65.61923 -8.5e-4,-27.79164 -1.7e-4,-55.58329 -3.9e-4,-83.37493 -3.481,-1.18627 -7.88128,-0.15323 -11.7099,-0.50027 -40.73929,0 -81.47857,0 -122.21785,0 l -0.39588,0.39675 z"
     id="path935"
     inkscape:connector-curvature="0"
     transform="matrix(0.75000021,0,0,0.75000021,-46,0)" />
  <path
     style="fill:#c41e3a;fill-opacity:1;stroke:none;stroke-width:22.41926575;stroke-linecap:round;stroke-miterlimit:4;stroke-dasharray:none;stroke-opacity:1"
     d="m 447.37274,114.40041 c -18.28634,0.16671 -35.50625,14.10136 -38.80678,32.21018 -1.35689,7.15528 -1.3078,15.18335 1.75916,21.73946 25.1268,0 50.25361,0 75.38041,0 2.74548,-5.46609 2.28975,-12.23142 2.17405,-18.31417 -1.2325,-13.73446 -10.59101,-26.4093 -23.18007,-31.97263 -5.40657,-2.49338 -11.36874,-3.79213 -17.32677,-3.66284 z"
     id="path937"
     inkscape:connector-curvature="0"
     transform="matrix(0.75000021,0,0,0.75000021,-46,0)" />
  <path
     style="fill:#c41e3a;fill-opacity:1;stroke:none;stroke-width:22.41926575;stroke-linecap:round;stroke-miterlimit:4;stroke-dasharray:none;stroke-opacity:1"
     d="m 367.30159,141.04737 c -15.54935,0.2181 -30.47054,10.42507 -36.54406,24.67981 -2.30447,4.06015 3.7279,2.25361 6.01642,2.62287 15.29428,-0.13834 30.7206,0.27461 45.93322,-0.2047 -0.94617,-8.04843 -0.71858,-16.24319 -0.62288,-24.37548 -4.30871,-2.13502 -9.88666,-2.63697 -14.7827,-2.7225 z"
     id="path939"
     inkscape:connector-curvature="0"
     transform="matrix(0.75000021,0,0,0.75000021,-46,0)" />
  <path
     style="fill:#c41e3a;fill-opacity:1;stroke:none;stroke-width:22.41926575;stroke-linecap:round;stroke-miterlimit:4;stroke-dasharray:none;stroke-opacity:1"
     d="m 313.94964,26.494554 c -8.76775,0.07954 -15.37221,10.109456 -11.99671,18.220033 1.92843,6.083149 8.50519,9.604607 14.68856,8.634921 9.49879,-0.637073 14.899,-13.045167 9.42529,-20.669951 -2.61746,-4.074986 -7.23664,-6.597214 -12.11714,-6.185003 z"
     id="path941"
     inkscape:connector-curvature="0"
     transform="matrix(0.75000021,0,0,0.75000021,-46,0)" />
  <path
     style="fill:#c41e3a;fill-opacity:1;stroke:none;stroke-width:22.41926575;stroke-linecap:round;stroke-miterlimit:4;stroke-dasharray:none;stroke-opacity:1"
     d="m 554.19485,26.377422 c -8.34835,0.0055 -14.71292,8.804875 -12.64148,16.77942 1.15359,6.724039 8.15196,11.447374 14.83306,10.144499 10.45771,-0.401742 15.68056,-15.094848 8.4116,-22.356869 -2.68192,-2.937889 -6.59921,-4.737625 -10.60318,-4.56705 z"
     id="path943"
     inkscape:connector-curvature="0"
     transform="matrix(0.75000021,0,0,0.75000021,-46,0)" />
  <path
     style="fill:#c87137;fill-opacity:1;stroke:none;stroke-width:15.85281563;stroke-linecap:round;stroke-miterlimit:4;stroke-dasharray:none;stroke-opacity:1"
     d="m 165.89761,26.467692 c -7.4408,-0.230401 -13.89921,7.527029 -12.13809,14.813248 3.92919,12.974646 9.17651,25.516528 13.7773,38.263547 11.07539,29.496323 22.18187,58.980953 33.27259,88.471503 3.51942,0.75957 7.48036,0.10616 11.16896,0.32434 12.68175,-0.0858 25.38587,0.20338 38.05372,-0.31505 0.78793,-1.46119 -1.4336,-3.10684 -1.76672,-4.60283 -23.01829,-42.57447 -45.85826,-85.25178 -69.37451,-127.554487 -1.81733,-3.340662 -3.66869,-7.155752 -7.5454,-8.478362 -1.71919,-0.708905 -3.5965,-0.968993 -5.44785,-0.921909 z"
     id="path947"
     inkscape:connector-curvature="0"
     transform="matrix(0.75000021,0,0,0.75000021,-46,0)" />
</svg>
